<svg width="411" height="162" viewBox="0 0 411 162" fill="none" xmlns="http://www.w3.org/2000/svg">
<path d="M60.1937 78.975C60.1937 80.1658 60.9618 81.1334 62.498 81.8776C64.0342 82.6219 65.9038 83.2769 68.1066 83.8425C70.3095 84.4081 72.5123 85.1226 74.7152 85.986C76.9181 86.8493 78.7876 88.2932 80.3238 90.3176C81.86 92.3419 82.6281 94.8724 82.6281 97.909C82.6281 102.494 80.9615 106.021 77.6282 108.492C74.2949 110.963 70.1356 112.199 65.1502 112.199C56.2228 112.199 50.136 108.656 46.8896 101.571L56.6286 95.9442C57.9039 99.8143 60.7445 101.749 65.1502 101.749C69.1501 101.749 71.1501 100.469 71.1501 97.909C71.1501 96.7182 70.382 95.7507 68.8457 95.0064C67.3095 94.2621 65.44 93.5923 63.2372 92.9969C61.0343 92.4015 58.8314 91.6572 56.6286 90.7641C54.4257 89.871 52.5562 88.4569 51.02 86.5218C49.4838 84.5867 48.7157 82.1605 48.7157 79.243C48.7157 74.8369 50.2954 71.3687 53.4547 68.8382C56.6141 66.3077 60.5416 65.0425 65.2371 65.0425C68.7733 65.0425 71.9906 65.8612 74.8891 67.4985C77.7876 69.1359 80.0774 71.4729 81.7585 74.5095L72.1935 79.8681C70.8022 76.8316 68.4834 75.3133 65.2371 75.3133C63.7879 75.3133 62.585 75.6407 61.6285 76.2957C60.672 76.9506 60.1937 77.8438 60.1937 78.975Z" fill="#1D242A"/>
<path d="M137.497 66.2927H149.409L135.584 110.948H124.888L116.888 83.887L108.888 110.948H98.193L84.3672 66.2927H96.28L103.671 93.7113L111.584 66.2927H122.193L130.105 93.8006L137.497 66.2927Z" fill="#1D242A"/>
<path d="M190.799 105.366C186.335 109.921 180.886 112.199 174.451 112.199C168.017 112.199 162.582 109.921 158.147 105.366C153.712 100.812 151.495 95.2297 151.495 88.6206C151.495 82.0116 153.712 76.4297 158.147 71.8748C162.582 67.3199 168.017 65.0425 174.451 65.0425C180.886 65.0425 186.335 67.3199 190.799 71.8748C195.262 76.4297 197.494 82.0116 197.494 88.6206C197.494 95.2297 195.262 100.812 190.799 105.366ZM166.06 97.4624C168.292 99.7845 171.089 100.946 174.451 100.946C177.813 100.946 180.625 99.7845 182.886 97.4624C185.147 95.1404 186.277 92.1931 186.277 88.6206C186.277 85.0482 185.147 82.1009 182.886 79.7788C180.625 77.4567 177.813 76.2957 174.451 76.2957C171.089 76.2957 168.292 77.4567 166.06 79.7788C163.828 82.1009 162.712 85.0482 162.712 88.6206C162.712 92.1931 163.828 95.1404 166.06 97.4624Z" fill="#3BA4F3"/>
<path d="M242.451 105.366C237.987 109.921 232.538 112.199 226.104 112.199C219.669 112.199 214.234 109.921 209.8 105.366C205.365 100.811 203.147 95.2294 203.147 88.6204C203.147 82.0114 205.365 76.4294 209.8 71.8745C214.234 67.3197 219.669 65.0422 226.104 65.0422C232.538 65.0422 237.987 67.3197 242.451 71.8745C246.915 76.4294 249.147 82.0114 249.147 88.6204C249.147 95.2294 246.915 100.811 242.451 105.366ZM217.712 97.4622C219.944 99.7843 222.741 100.945 226.104 100.945C229.466 100.945 232.277 99.7843 234.538 97.4622C236.799 95.1401 237.929 92.1928 237.929 88.6204C237.929 85.0479 236.799 82.1007 234.538 79.7786C232.277 77.4565 229.466 76.2954 226.104 76.2954C222.741 76.2954 219.944 77.4565 217.712 79.7786C215.481 82.1007 214.365 85.0479 214.365 88.6204C214.365 92.1928 215.481 95.1401 217.712 97.4622Z" fill="#3BA4F3"/>
<path d="M40.3182 101.195C35.8546 105.75 30.4054 108.027 23.9707 108.027C17.5361 108.027 12.1014 105.75 7.6667 101.195C3.232 96.6402 1.01465 91.0583 1.01465 84.4492C1.01465 77.8402 3.232 72.2583 7.6667 67.7034C12.1014 63.1485 17.5361 60.8711 23.9707 60.8711C30.4054 60.8711 35.8546 63.1485 40.3182 67.7034C44.7819 72.2583 47.0138 77.8402 47.0138 84.4492C47.0138 91.0583 44.7819 96.6402 40.3182 101.195ZM15.5796 93.2911C17.8114 95.6131 20.6085 96.7742 23.9707 96.7742C27.333 96.7742 30.1445 95.6131 32.4053 93.2911C34.6662 90.969 35.7966 88.0217 35.7966 84.4492C35.7966 80.8768 34.6662 77.9295 32.4053 75.6074C30.1445 73.2853 27.333 72.1243 23.9707 72.1243C20.6085 72.1243 17.8114 73.2853 15.5796 75.6074C13.3477 77.9295 12.2318 80.8768 12.2318 84.4492C12.2318 88.0217 13.3477 90.969 15.5796 93.2911Z" fill="#D8EDFD"/>
<path d="M403.433 101.195C398.97 105.75 393.521 108.027 387.086 108.027C380.651 108.027 375.217 105.75 370.782 101.195C366.347 96.6402 364.13 91.0583 364.13 84.4493C364.13 77.8402 366.347 72.2583 370.782 67.7034C375.217 63.1485 380.651 60.8711 387.086 60.8711C393.521 60.8711 398.97 63.1485 403.433 67.7034C407.897 72.2583 410.129 77.8402 410.129 84.4493C410.129 91.0583 407.897 96.6402 403.433 101.195ZM378.695 93.2911C380.927 95.6131 383.724 96.7742 387.086 96.7742C390.448 96.7742 393.26 95.6131 395.521 93.2911C397.781 90.969 398.912 88.0217 398.912 84.4493C398.912 80.8768 397.781 77.9295 395.521 75.6074C393.26 73.2853 390.448 72.1243 387.086 72.1243C383.724 72.1243 380.927 73.2853 378.695 75.6074C376.463 77.9295 375.347 80.8768 375.347 84.4493C375.347 88.0217 376.463 90.969 378.695 93.2911Z" fill="#D8EDFD"/>
<path d="M216.044 41.324C211.58 45.8789 206.131 48.1563 199.696 48.1563C193.262 48.1563 187.827 45.8789 183.392 41.324C178.958 36.7691 176.74 31.1872 176.74 24.5782C176.74 17.9691 178.958 12.3872 183.392 7.83231C187.827 3.27744 193.262 1 199.696 1C206.131 1 211.58 3.27744 216.044 7.83231C220.508 12.3872 222.739 17.9691 222.739 24.5782C222.739 31.1872 220.508 36.7691 216.044 41.324ZM191.305 33.42C193.537 35.7421 196.334 36.9031 199.696 36.9031C203.059 36.9031 205.87 35.7421 208.131 33.42C210.392 31.0979 211.522 28.1506 211.522 24.5782C211.522 21.0057 210.392 18.0584 208.131 15.7363C205.87 13.4143 203.059 12.2532 199.696 12.2532C196.334 12.2532 193.537 13.4143 191.305 15.7363C189.073 18.0584 187.957 21.0057 187.957 24.5782C187.957 28.1506 189.073 31.0979 191.305 33.42Z" fill="#D8EDFD"/>
<path d="M216.044 154.068C211.58 158.623 206.131 160.901 199.696 160.901C193.262 160.901 187.827 158.623 183.392 154.068C178.958 149.514 176.74 143.932 176.74 137.323C176.74 130.714 178.958 125.132 183.392 120.577C187.827 116.022 193.262 113.744 199.696 113.744C206.131 113.744 211.58 116.022 216.044 120.577C220.508 125.132 222.739 130.714 222.739 137.323C222.739 143.932 220.508 149.514 216.044 154.068ZM191.305 146.164C193.537 148.486 196.334 149.647 199.696 149.647C203.059 149.647 205.87 148.486 208.131 146.164C210.392 143.842 211.522 140.895 211.522 137.323C211.522 133.75 210.392 130.803 208.131 128.481C205.87 126.159 203.059 124.998 199.696 124.998C196.334 124.998 193.537 126.159 191.305 128.481C189.073 130.803 187.957 133.75 187.957 137.323C187.957 140.895 189.073 143.842 191.305 146.164Z" fill="#D8EDFD"/>
<path d="M266.451 78.9748C266.451 80.1656 267.219 81.1331 268.755 81.8774C270.291 82.6217 272.161 83.2766 274.363 83.8422C276.566 84.4079 278.769 85.1224 280.972 85.9857C283.175 86.8491 285.044 88.2929 286.581 90.3173C288.117 92.3417 288.885 94.8722 288.885 97.9088C288.885 102.493 287.218 106.021 283.885 108.492C280.552 110.963 276.392 112.199 271.407 112.199C262.48 112.199 256.393 108.656 253.146 101.571L262.885 95.9439C264.161 99.8141 267.001 101.749 271.407 101.749C275.407 101.749 277.407 100.469 277.407 97.9088C277.407 96.7179 276.639 95.7504 275.103 95.0061C273.566 94.2619 271.697 93.5921 269.494 92.9966C267.291 92.4012 265.088 91.657 262.885 90.7639C260.683 89.8708 258.813 88.4567 257.277 86.5216C255.741 84.5865 254.973 82.1602 254.973 79.2427C254.973 74.8367 256.552 71.3684 259.712 68.838C262.871 66.3075 266.798 65.0422 271.494 65.0422C275.03 65.0422 278.247 65.8609 281.146 67.4983C284.044 69.1357 286.334 71.4726 288.015 74.5092L278.45 79.8679C277.059 76.8313 274.74 75.313 271.494 75.313C270.045 75.313 268.842 75.6405 267.885 76.2954C266.929 76.9504 266.451 77.8435 266.451 78.9748Z" fill="#1D242A"/>
<path d="M320.276 65.0423C325.03 65.0423 328.957 66.6797 332.058 69.9544C335.16 73.2292 336.71 77.7543 336.71 83.5297V110.948H325.493V84.9587C325.493 81.9817 324.711 79.7042 323.145 78.1264C321.58 76.5486 319.493 75.7596 316.885 75.7596C313.986 75.7596 311.667 76.6825 309.928 78.5283C308.189 80.3741 307.32 83.1427 307.32 86.8342V110.948H296.103V48.4304H307.32V71.2941C310.044 67.1262 314.363 65.0423 320.276 65.0423Z" fill="#1D242A"/>
<path d="M359.623 109.876C358.174 111.365 356.435 112.109 354.406 112.109C352.377 112.109 350.638 111.365 349.189 109.876C347.739 108.388 347.015 106.602 347.015 104.518C347.015 102.434 347.739 100.648 349.189 99.159C350.638 97.6705 352.377 96.9263 354.406 96.9263C356.435 96.9263 358.174 97.6705 359.623 99.159C361.072 100.648 361.797 102.434 361.797 104.518C361.797 106.602 361.072 108.388 359.623 109.876Z" fill="#1D242A"/>
<rect x="46.5" y="48.5" width="315" height="64" stroke="#B0B0B0"/>
<rect x="0.5" y="0.5" width="410" height="161" stroke="#B0B0B0"/>
</svg>
