<svg width="1047" height="212" viewBox="0 0 1047 212" fill="none" xmlns="http://www.w3.org/2000/svg">
<path d="M44.23 101.546C44.23 105.505 46.7836 108.722 51.8908 111.196C56.9979 113.67 63.2133 115.848 70.5368 117.728C77.8602 119.609 85.1837 121.984 92.5072 124.854C99.8307 127.725 106.046 132.525 111.153 139.255C116.26 145.985 118.814 154.398 118.814 164.493C118.814 179.735 113.273 191.463 102.192 199.678C91.11 207.893 77.2821 212 60.7079 212C31.0285 212 10.7925 200.222 0 176.667L32.3775 157.961C36.6174 170.827 46.0609 177.261 60.7079 177.261C74.0058 177.261 80.6547 173.005 80.6547 164.493C80.6547 160.534 78.1011 157.317 72.994 154.843C67.8868 152.369 61.6715 150.142 54.348 148.162C47.0245 146.183 39.701 143.709 32.3775 140.739C25.054 137.77 18.8387 133.069 13.7315 126.636C8.62437 120.203 6.07079 112.136 6.07079 102.437C6.07079 87.789 11.3225 76.2586 21.8259 67.8459C32.3293 59.4332 45.3863 55.2269 60.9969 55.2269C72.7531 55.2269 83.4492 57.9486 93.0854 63.3921C102.722 68.8356 110.334 76.605 115.923 86.7003L84.1237 104.515C79.4984 94.4202 71.7894 89.3725 60.9969 89.3725C56.1789 89.3725 52.1798 90.4612 48.9999 92.6386C45.82 94.816 44.23 97.7852 44.23 101.546Z" fill="white"/>
<path d="M301.226 59.3838H340.83L294.866 207.843H259.308L232.713 117.877L206.117 207.843H170.559L124.595 59.3838H164.199L188.772 150.538L215.078 59.3838H250.347L276.653 150.835L301.226 59.3838Z" fill="white"/>
<path d="M478.436 189.286C463.596 204.429 445.48 212 424.088 212C402.696 212 384.628 204.429 369.885 189.286C355.141 174.143 347.77 155.585 347.77 133.613C347.77 111.641 355.141 93.084 369.885 77.9412C384.628 62.7983 402.696 55.2269 424.088 55.2269C445.48 55.2269 463.596 62.7983 478.436 77.9412C493.276 93.084 500.695 111.641 500.695 133.613C500.695 155.585 493.276 174.143 478.436 189.286ZM396.191 163.008C403.611 170.728 412.91 174.588 424.088 174.588C435.266 174.588 444.613 170.728 452.129 163.008C459.645 155.289 463.404 145.49 463.404 133.613C463.404 121.737 459.645 111.938 452.129 104.218C444.613 96.4986 435.266 92.6386 424.088 92.6386C412.91 92.6386 403.611 96.4986 396.191 104.218C388.771 111.938 385.061 121.737 385.061 133.613C385.061 145.49 388.771 155.289 396.191 163.008Z" fill="#3BA4F3"/>
<path d="M650.153 189.286C635.313 204.429 617.197 212 595.805 212C574.413 212 556.345 204.429 541.601 189.286C526.858 174.143 519.486 155.585 519.486 133.613C519.486 111.641 526.858 93.084 541.601 77.9412C556.345 62.7983 574.413 55.2269 595.805 55.2269C617.197 55.2269 635.313 62.7983 650.153 77.9412C664.992 93.084 672.412 111.641 672.412 133.613C672.412 155.585 664.992 174.143 650.153 189.286ZM567.908 163.008C575.328 170.728 584.627 174.588 595.805 174.588C606.983 174.588 616.33 170.728 623.846 163.008C631.362 155.289 635.12 145.49 635.12 133.613C635.12 121.737 631.362 111.938 623.846 104.218C616.33 96.4986 606.983 92.6386 595.805 92.6386C584.627 92.6386 575.328 96.4986 567.908 104.218C560.488 111.938 556.778 121.737 556.778 133.613C556.778 145.49 560.488 155.289 567.908 163.008Z" fill="#3BA4F3"/>
<path d="M729.939 101.546C729.939 105.505 732.493 108.722 737.6 111.196C742.707 113.67 748.922 115.848 756.246 117.728C763.569 119.609 770.893 121.984 778.216 124.854C785.54 127.725 791.755 132.525 796.862 139.255C801.969 145.985 804.523 154.398 804.523 164.493C804.523 179.735 798.982 191.463 787.9 199.678C776.819 207.893 762.991 212 746.417 212C716.737 212 696.501 200.222 685.709 176.667L718.086 157.961C722.326 170.827 731.77 177.261 746.417 177.261C759.715 177.261 766.364 173.005 766.364 164.493C766.364 160.534 763.81 157.317 758.703 154.843C753.596 152.369 747.38 150.142 740.057 148.162C732.733 146.183 725.41 143.709 718.086 140.739C710.763 137.77 704.548 133.069 699.44 126.636C694.333 120.203 691.78 112.136 691.78 102.437C691.78 87.789 697.031 76.2586 707.535 67.8459C718.038 59.4332 731.095 55.2269 746.706 55.2269C758.462 55.2269 769.158 57.9486 778.794 63.3921C788.43 68.8356 796.043 76.605 801.632 86.7003L769.833 104.515C765.207 94.4202 757.498 89.3725 746.706 89.3725C741.888 89.3725 737.889 90.4612 734.709 92.6386C731.529 94.816 729.939 97.7852 729.939 101.546Z" fill="white"/>
<path d="M908.883 55.2269C924.686 55.2269 937.743 60.6704 948.054 71.5574C958.365 82.4445 963.52 97.4883 963.52 116.689V207.843H926.228V121.44C926.228 111.542 923.626 103.971 918.423 98.7255C913.219 93.4799 906.281 90.8572 897.609 90.8572C887.973 90.8572 880.264 93.9253 874.482 100.062C868.7 106.198 865.809 115.402 865.809 127.675V207.843H828.518V0H865.809V76.0112C874.867 62.155 889.225 55.2269 908.883 55.2269Z" fill="white"/>
<path d="M1039.69 204.28C1034.88 209.229 1029.09 211.703 1022.35 211.703C1015.6 211.703 1009.82 209.229 1005 204.28C1000.19 199.331 997.776 193.393 997.776 186.465C997.776 179.537 1000.19 173.599 1005 168.65C1009.82 163.701 1015.6 161.227 1022.35 161.227C1029.09 161.227 1034.88 163.701 1039.69 168.65C1044.51 173.599 1046.92 179.537 1046.92 186.465C1046.92 193.393 1044.51 199.331 1039.69 204.28Z" fill="white"/>
</svg>
