<svg width="162" height="111" viewBox="0 0 162 111" fill="none" xmlns="http://www.w3.org/2000/svg">
<path d="M13.5851 14.2269C13.5851 15.4428 14.3695 16.4308 15.9381 17.1908C17.5068 17.9508 19.4158 18.6196 21.6652 19.1972C23.9146 19.7747 26.164 20.5043 28.4134 21.3859C30.6628 22.2675 32.5718 23.7419 34.1404 25.809C35.7091 27.8762 36.4934 30.4601 36.4934 33.5608C36.4934 38.2423 34.7916 41.8446 31.3879 44.3678C27.9842 46.8909 23.737 48.1525 18.6463 48.1525C9.53032 48.1525 3.31489 44.535 0 37.2999L9.94468 31.5545C11.247 35.5064 14.1475 37.4823 18.6463 37.4823C22.7307 37.4823 24.7729 36.1752 24.7729 33.5608C24.7729 32.3449 23.9886 31.3569 22.4199 30.5969C20.8513 29.8369 18.9422 29.1529 16.6929 28.5449C14.4435 27.937 12.1941 27.177 9.94468 26.265C7.69529 25.353 5.78626 23.909 4.21761 21.9331C2.64895 19.9571 1.86463 17.4796 1.86463 14.5005C1.86463 10.0014 3.47768 6.45985 6.70378 3.87591C9.92988 1.29197 13.9403 0 18.7351 0C22.3459 0 25.6312 0.835982 28.5909 2.50794C31.5507 4.1799 33.8889 6.56625 35.6055 9.66698L25.8384 15.1389C24.4177 12.0381 22.05 10.4878 18.7351 10.4878C17.2552 10.4878 16.0269 10.8221 15.0502 11.4909C14.0735 12.1597 13.5851 13.0717 13.5851 14.2269Z" fill="#1D242A"/>
<path d="M92.5203 1.27686H104.685L90.5669 46.8758H79.6455L71.4767 19.2428L63.3078 46.8758H52.3864L38.2686 1.27686H50.433L57.9803 29.2746L66.0604 1.27686H76.893L84.973 29.3658L92.5203 1.27686Z" fill="#1D242A"/>
<path d="M146.951 41.1758C142.393 45.8269 136.829 48.1525 130.258 48.1525C123.688 48.1525 118.138 45.8269 113.61 41.1758C109.082 36.5248 106.817 30.8249 106.817 24.0762C106.817 17.3276 109.082 11.6277 113.61 6.97664C118.138 2.32555 123.688 0 130.258 0C136.829 0 142.393 2.32555 146.951 6.97664C151.509 11.6277 153.788 17.3276 153.788 24.0762C153.788 30.8249 151.509 36.5248 146.951 41.1758ZM121.69 33.1048C123.969 35.476 126.825 36.6616 130.258 36.6616C133.692 36.6616 136.563 35.476 138.871 33.1048C141.18 30.7337 142.334 27.7242 142.334 24.0762C142.334 20.4283 141.18 17.4188 138.871 15.0477C136.563 12.6765 133.692 11.4909 130.258 11.4909C126.825 11.4909 123.969 12.6765 121.69 15.0477C119.411 17.4188 118.272 20.4283 118.272 24.0762C118.272 27.7242 119.411 30.7337 121.69 33.1048Z" fill="#3BA4F3"/>
<path d="M40.1339 103.577C35.5759 108.228 30.0116 110.554 23.441 110.554C16.8704 110.554 11.321 108.228 6.79258 103.577C2.2642 98.9261 0 93.2263 0 86.4776C0 79.729 2.2642 74.0291 6.79258 69.378C11.321 64.7269 16.8704 62.4014 23.441 62.4014C30.0116 62.4014 35.5759 64.7269 40.1339 69.378C44.6919 74.0291 46.9708 79.729 46.9708 86.4776C46.9708 93.2263 44.6919 98.9261 40.1339 103.577ZM14.8726 95.5062C17.1516 97.8773 20.0078 99.0629 23.441 99.0629C26.8743 99.0629 29.7452 97.8773 32.0538 95.5062C34.3624 93.1351 35.5167 90.1255 35.5167 86.4776C35.5167 82.8297 34.3624 79.8202 32.0538 77.449C29.7452 75.0779 26.8743 73.8923 23.441 73.8923C20.0078 73.8923 17.1516 75.0779 14.8726 77.449C12.5936 79.8202 11.4541 82.8297 11.4541 86.4776C11.4541 90.1255 12.5936 93.1351 14.8726 95.5062Z" fill="#3BA4F3"/>
<path d="M64.6398 76.6282C64.6398 77.8442 65.4241 78.8322 66.9928 79.5922C68.5614 80.3522 70.4705 81.0209 72.7199 81.5985C74.9693 82.1761 77.2187 82.9057 79.468 83.7873C81.7174 84.6689 83.6265 86.1432 85.1951 88.2104C86.7638 90.2775 87.5481 92.8615 87.5481 95.9622C87.5481 100.644 85.8462 104.246 82.4426 106.769C79.0389 109.292 74.7917 110.554 69.7009 110.554C60.585 110.554 54.3696 106.936 51.0547 99.7013L60.9993 93.9558C62.3016 97.9077 65.2022 99.8837 69.7009 99.8837C73.7854 99.8837 75.8276 98.5765 75.8276 95.9622C75.8276 94.7462 75.0433 93.7582 73.4746 92.9983C71.9059 92.2383 69.9969 91.5543 67.7475 90.9463C65.4981 90.3383 63.2487 89.5783 60.9993 88.6664C58.75 87.7544 56.8409 86.3104 55.2723 84.3345C53.7036 82.3585 52.9193 79.881 52.9193 76.9018C52.9193 72.4027 54.5324 68.8612 57.7585 66.2773C60.9846 63.6933 64.995 62.4014 69.7897 62.4014C73.4006 62.4014 76.6859 63.2373 79.6456 64.9093C82.6053 66.5813 84.9435 68.9676 86.6602 72.0683L76.8931 77.5402C75.4724 74.4395 73.1046 72.8891 69.7897 72.8891C68.3099 72.8891 67.0816 73.2235 66.1049 73.8923C65.1282 74.5611 64.6398 75.4731 64.6398 76.6282Z" fill="#1D242A"/>
<path d="M119.602 62.4015C124.456 62.4015 128.466 64.0735 131.633 67.4174C134.8 70.7613 136.384 75.382 136.384 81.2795V109.277H124.93V82.7387C124.93 79.6987 124.13 77.3732 122.532 75.762C120.934 74.1509 118.803 73.3453 116.139 73.3453C113.179 73.3453 110.812 74.2877 109.036 76.1724C107.26 78.0572 106.372 80.8843 106.372 84.6538V109.277H94.918V45.4387H106.372V68.7854C109.154 64.5295 113.564 62.4015 119.602 62.4015Z" fill="#1D242A"/>
<path d="M159.78 108.183C158.3 109.703 156.524 110.463 154.453 110.463C152.381 110.463 150.605 109.703 149.125 108.183C147.645 106.663 146.905 104.839 146.905 102.711C146.905 100.583 147.645 98.7591 149.125 97.2392C150.605 95.7192 152.381 94.9592 154.453 94.9592C156.524 94.9592 158.3 95.7192 159.78 97.2392C161.26 98.7591 162 100.583 162 102.711C162 104.839 161.26 106.663 159.78 108.183Z" fill="#1D242A"/>
</svg>
