<svg width="202" height="162" viewBox="0 0 202 162" fill="none" xmlns="http://www.w3.org/2000/svg">
<path d="M50.1476 49.0067C50.1476 49.9448 50.7527 50.707 51.9629 51.2933C53.1731 51.8796 54.6458 52.3956 56.3812 52.8412C58.1166 53.2868 59.8519 53.8496 61.5873 54.5298C63.3226 55.2099 64.7954 56.3473 66.0056 57.9421C67.2158 59.5368 67.8208 61.5303 67.8208 63.9224C67.8208 67.5341 66.5079 70.3132 63.882 72.2598C61.2562 74.2063 57.9796 75.1796 54.0522 75.1796C47.0194 75.1796 42.2244 72.3887 39.667 66.8071L47.3391 62.3746C48.3438 65.4234 50.5815 66.9478 54.0522 66.9478C57.2032 66.9478 58.7787 65.9393 58.7787 63.9224C58.7787 62.9843 58.1736 62.2221 56.9635 61.6358C55.7533 61.0495 54.2805 60.5218 52.5452 60.0528C50.8098 59.5837 49.0744 58.9974 47.3391 58.2939C45.6037 57.5903 44.131 56.4763 42.9208 54.9519C41.7106 53.4275 41.1055 51.5161 41.1055 49.2178C41.1055 45.7468 42.3499 43.0146 44.8388 41.0212C47.3277 39.0277 50.4216 38.031 54.1207 38.031C56.9064 38.031 59.4409 38.6759 61.7243 39.9658C64.0076 41.2557 65.8115 43.0967 67.1358 45.4889L59.6007 49.7103C58.5047 47.3181 56.678 46.1221 54.1207 46.1221C52.979 46.1221 52.0314 46.3801 51.2779 46.896C50.5244 47.412 50.1476 48.1155 50.1476 49.0067Z" fill="#1D242A"/>
<path d="M111.045 39.0161H120.43L109.538 74.1947H101.113L94.8107 52.8765L88.5086 74.1947H80.083L69.1914 39.0161H78.576L84.3986 60.6158L90.6322 39.0161H98.9893L105.223 60.6861L111.045 39.0161Z" fill="#1D242A"/>
<path d="M153.038 69.7973C149.521 73.3855 145.228 75.1796 140.159 75.1796C135.09 75.1796 130.809 73.3855 127.316 69.7973C123.822 66.209 122.075 61.8117 122.075 56.6053C122.075 51.3989 123.822 47.0015 127.316 43.4133C130.809 39.8251 135.09 38.031 140.159 38.031C145.228 38.031 149.521 39.8251 153.038 43.4133C156.554 47.0015 158.312 51.3989 158.312 56.6053C158.312 61.8117 156.554 66.209 153.038 69.7973ZM133.549 63.5706C135.307 65.3999 137.511 66.3146 140.159 66.3146C142.808 66.3146 145.023 65.3999 146.804 63.5706C148.585 61.7414 149.476 59.4196 149.476 56.6053C149.476 53.791 148.585 51.4692 146.804 49.6399C145.023 47.8106 142.808 46.896 140.159 46.896C137.511 46.896 135.307 47.8106 133.549 49.6399C131.791 51.4692 130.912 53.791 130.912 56.6053C130.912 59.4196 131.791 61.7414 133.549 63.5706Z" fill="#3BA4F3"/>
<path d="M109.976 32.7663C106.46 36.3545 102.167 38.1486 97.0979 38.1486C92.0288 38.1486 87.7475 36.3545 84.254 32.7663C80.7604 29.178 79.0137 24.7807 79.0137 19.5743C79.0137 14.3679 80.7604 9.97054 84.254 6.38232C87.7475 2.79411 92.0288 1 97.0979 1C102.167 1 106.46 2.79411 109.976 6.38232C113.492 9.97054 115.251 14.3679 115.251 19.5743C115.251 24.7807 113.492 29.178 109.976 32.7663ZM90.4876 26.5396C92.2458 28.3689 94.4492 29.2836 97.0979 29.2836C99.7466 29.2836 101.961 28.3689 103.742 26.5396C105.524 24.7104 106.414 22.3886 106.414 19.5743C106.414 16.76 105.524 14.4382 103.742 12.6089C101.961 10.7796 99.7466 9.865 97.0979 9.865C94.4492 9.865 92.2458 10.7796 90.4876 12.6089C88.7294 14.4382 87.8503 16.76 87.8503 19.5743C87.8503 22.3886 88.7294 24.7104 90.4876 26.5396Z" fill="#D8EDFD"/>
<path d="M109.976 154.66C106.46 158.248 102.167 160.042 97.0979 160.042C92.0288 160.042 87.7475 158.248 84.254 154.66C80.7604 151.072 79.0137 146.674 79.0137 141.468C79.0137 136.261 80.7604 131.864 84.254 128.276C87.7475 124.688 92.0288 122.894 97.0979 122.894C102.167 122.894 106.46 124.688 109.976 128.276C113.492 131.864 115.251 136.261 115.251 141.468C115.251 146.674 113.492 151.072 109.976 154.66ZM90.4876 148.433C92.2458 150.262 94.4492 151.177 97.0979 151.177C99.7466 151.177 101.961 150.262 103.742 148.433C105.524 146.604 106.414 144.282 106.414 141.468C106.414 138.654 105.524 136.332 103.742 134.502C101.961 132.673 99.7466 131.759 97.0979 131.759C94.4492 131.759 92.2458 132.673 90.4876 134.502C88.7294 136.332 87.8503 138.654 87.8503 141.468C87.8503 144.282 88.7294 146.604 90.4876 148.433Z" fill="#D8EDFD"/>
<path d="M32.0561 94.4845C28.5398 98.0727 24.247 99.8668 19.178 99.8668C14.1089 99.8668 9.82761 98.0727 6.33406 94.4845C2.84052 90.8963 1.09375 86.499 1.09375 81.2925C1.09375 76.0861 2.84052 71.6888 6.33406 68.1006C9.82761 64.5124 14.1089 62.7183 19.178 62.7183C24.247 62.7183 28.5398 64.5124 32.0561 68.1006C35.5725 71.6888 37.3307 76.0861 37.3307 81.2925C37.3307 86.499 35.5725 90.8963 32.0561 94.4845ZM12.5676 88.2579C14.3258 90.0872 16.5293 91.0018 19.178 91.0018C21.8267 91.0018 24.0415 90.0872 25.8226 88.2579C27.6036 86.4286 28.4941 84.1068 28.4941 81.2925C28.4941 78.4783 27.6036 76.1565 25.8226 74.3272C24.0415 72.4979 21.8267 71.5833 19.178 71.5833C16.5293 71.5833 14.3258 72.4979 12.5676 74.3272C10.8095 76.1565 9.93036 78.4783 9.93036 81.2925C9.93036 84.1068 10.8095 86.4286 12.5676 88.2579Z" fill="#D8EDFD"/>
<path d="M195.609 94.4845C192.093 98.0727 187.8 99.8668 182.731 99.8668C177.662 99.8668 173.38 98.0727 169.887 94.4845C166.393 90.8963 164.646 86.499 164.646 81.2925C164.646 76.0861 166.393 71.6888 169.887 68.1006C173.38 64.5124 177.662 62.7183 182.731 62.7183C187.8 62.7183 192.093 64.5124 195.609 68.1006C199.125 71.6888 200.883 76.0861 200.883 81.2925C200.883 86.499 199.125 90.8963 195.609 94.4845ZM176.12 88.2579C177.879 90.0872 180.082 91.0018 182.731 91.0018C185.379 91.0018 187.594 90.0872 189.375 88.2579C191.156 86.4286 192.047 84.1068 192.047 81.2925C192.047 78.4783 191.156 76.1565 189.375 74.3272C187.594 72.4979 185.379 71.5833 182.731 71.5833C180.082 71.5833 177.879 72.4979 176.12 74.3272C174.362 76.1565 173.483 78.4783 173.483 81.2925C173.483 84.1068 174.362 86.4286 176.12 88.2579Z" fill="#D8EDFD"/>
<path d="M70.6304 117.939C67.114 121.527 62.8213 123.321 57.7522 123.321C52.6831 123.321 48.4018 121.527 44.9083 117.939C41.4147 114.35 39.668 109.953 39.668 104.747C39.668 99.5402 41.4147 95.1429 44.9083 91.5547C48.4018 87.9665 52.6831 86.1724 57.7522 86.1724C62.8213 86.1724 67.114 87.9665 70.6304 91.5547C74.1467 95.1429 75.9049 99.5402 75.9049 104.747C75.9049 109.953 74.1467 114.35 70.6304 117.939ZM51.1419 111.712C52.9001 113.541 55.1035 114.456 57.7522 114.456C60.4009 114.456 62.6158 113.541 64.3968 111.712C66.1778 109.883 67.0683 107.561 67.0683 104.747C67.0683 101.932 66.1778 99.6106 64.3968 97.7813C62.6158 95.952 60.4009 95.0374 57.7522 95.0374C55.1035 95.0374 52.9001 95.952 51.1419 97.7813C49.3837 99.6106 48.5046 101.932 48.5046 104.747C48.5046 107.561 49.3837 109.883 51.1419 111.712Z" fill="#3BA4F3"/>
<path d="M89.5363 97.1481C89.5363 98.0862 90.1414 98.8484 91.3516 99.4347C92.5617 100.021 94.0345 100.537 95.7699 100.983C97.5052 101.428 99.2406 101.991 100.976 102.671C102.711 103.351 104.184 104.489 105.394 106.083C106.604 107.678 107.21 109.672 107.21 112.064C107.21 115.675 105.897 118.455 103.271 120.401C100.645 122.348 97.3682 123.321 93.4408 123.321C86.4081 123.321 81.613 120.53 79.0557 114.948L86.7277 110.516C87.7324 113.565 89.9701 115.089 93.4408 115.089C96.5919 115.089 98.1674 114.081 98.1674 112.064C98.1674 111.126 97.5623 110.363 96.3521 109.777C95.1419 109.191 93.6692 108.663 91.9338 108.194C90.1985 107.725 88.4631 107.139 86.7277 106.435C84.9924 105.732 83.5196 104.618 82.3094 103.093C81.0993 101.569 80.4942 99.6575 80.4942 97.3591C80.4942 93.8882 81.7386 91.156 84.2275 89.1625C86.7163 87.1691 89.8103 86.1724 93.5093 86.1724C96.295 86.1724 98.8296 86.8173 101.113 88.1072C103.396 89.3971 105.2 91.2381 106.525 93.6302L98.9894 97.8516C97.8934 95.4595 96.0667 94.2634 93.5093 94.2634C92.3677 94.2634 91.4201 94.5214 90.6666 95.0374C89.913 95.5533 89.5363 96.2569 89.5363 97.1481Z" fill="#1D242A"/>
<path d="M131.939 86.1724C135.683 86.1724 138.777 87.4622 141.221 90.042C143.664 92.6218 144.885 96.1865 144.885 100.736V122.336H136.049V101.862C136.049 99.5168 135.432 97.7227 134.199 96.4797C132.966 95.2367 131.322 94.6152 129.267 94.6152C126.984 94.6152 125.157 95.3422 123.787 96.7963C122.417 98.2503 121.732 100.431 121.732 103.34V122.336H112.896V73.0859H121.732V91.0974C123.878 87.814 127.281 86.1724 131.939 86.1724Z" fill="#1D242A"/>
<path d="M162.935 121.492C161.793 122.665 160.423 123.251 158.825 123.251C157.226 123.251 155.856 122.665 154.714 121.492C153.573 120.319 153.002 118.912 153.002 117.271C153.002 115.629 153.573 114.222 154.714 113.049C155.856 111.877 157.226 111.29 158.825 111.29C160.423 111.29 161.793 111.877 162.935 113.049C164.076 114.222 164.647 115.629 164.647 117.271C164.647 118.912 164.076 120.319 162.935 121.492Z" fill="#1D242A"/>
<rect x="36.5" y="37.822" width="129" height="86" stroke="#B0B0B0"/>
<rect x="0.5" y="0.822021" width="201" height="160" stroke="#B0B0B0"/>
</svg>
