<svg width="505" height="103" viewBox="0 0 505 103" fill="none" xmlns="http://www.w3.org/2000/svg">
<path d="M21.3351 48.9826C21.3351 50.8922 22.5669 52.4438 25.0304 53.6373C27.4939 54.8309 30.492 55.8812 34.0246 56.7883C37.5572 57.6954 41.0898 58.8411 44.6224 60.2256C48.155 61.6101 51.1531 63.9256 53.6166 67.172C56.0802 70.4184 57.3119 74.4764 57.3119 79.346C57.3119 86.6982 54.6392 92.3555 49.2938 96.318C43.9484 100.281 37.2783 102.262 29.2835 102.262C14.9671 102.262 5.20595 96.5806 0 85.2182L15.6178 76.1951C17.663 82.4015 22.2182 85.5046 29.2835 85.5046C35.6979 85.5046 38.9052 83.4518 38.9052 79.346C38.9052 77.4364 37.6734 75.8848 35.2099 74.6912C32.7463 73.4977 29.7483 72.4235 26.2157 71.4687C22.6831 70.5139 19.1505 69.3204 15.6178 67.8881C12.0852 66.4559 9.08717 64.1882 6.62364 61.085C4.16011 57.9818 2.92835 54.0909 2.92835 49.4122C2.92835 42.3465 5.4616 36.7847 10.5281 32.7267C15.5946 28.6687 21.8929 26.6396 29.4229 26.6396C35.0937 26.6396 40.2531 27.9525 44.9013 30.5783C49.5495 33.2041 53.2215 36.9518 55.9175 41.8214L40.5785 50.4148C38.3474 45.5452 34.6289 43.1104 29.4229 43.1104C27.0988 43.1104 25.1698 43.6355 23.6359 44.6858C22.102 45.7362 21.3351 47.1684 21.3351 48.9826Z" fill="#1D242A"/>
<path d="M145.302 28.6448H164.405L142.234 100.257H125.082L112.253 56.8599L99.4241 100.257H82.2724L60.1006 28.6448H79.2046L91.0574 72.6145L103.747 28.6448H120.759L133.449 72.7577L145.302 28.6448Z" fill="#1D242A"/>
<path d="M230.782 91.3052C223.624 98.6096 214.885 102.262 204.566 102.262C194.247 102.262 185.532 98.6096 178.42 91.3052C171.309 84.0008 167.753 75.0493 167.753 64.4507C167.753 53.8522 171.309 44.9007 178.42 37.5963C185.532 30.2919 194.247 26.6396 204.566 26.6396C214.885 26.6396 223.624 30.2919 230.782 37.5963C237.94 44.9007 241.519 53.8522 241.519 64.4507C241.519 75.0493 237.94 84.0008 230.782 91.3052ZM191.11 78.6299C194.689 82.3537 199.175 84.2156 204.566 84.2156C209.958 84.2156 214.467 82.3537 218.093 78.6299C221.718 74.9061 223.531 70.1797 223.531 64.4507C223.531 58.7218 221.718 53.9954 218.093 50.2716C214.467 46.5478 209.958 44.6858 204.566 44.6858C199.175 44.6858 194.689 46.5478 191.11 50.2716C187.531 53.9954 185.741 58.7218 185.741 64.4507C185.741 70.1797 187.531 74.9061 191.11 78.6299Z" fill="#3BA4F3"/>
<path d="M313.612 91.3052C306.454 98.6096 297.715 102.262 287.397 102.262C277.078 102.262 268.362 98.6096 261.251 91.3052C254.139 84.0008 250.583 75.0493 250.583 64.4507C250.583 53.8522 254.139 44.9007 261.251 37.5963C268.362 30.2919 277.078 26.6396 287.397 26.6396C297.715 26.6396 306.454 30.2919 313.612 37.5963C320.77 44.9007 324.349 53.8522 324.349 64.4507C324.349 75.0493 320.77 84.0008 313.612 91.3052ZM273.94 78.6299C277.519 82.3537 282.005 84.2156 287.397 84.2156C292.788 84.2156 297.297 82.3537 300.923 78.6299C304.548 74.9061 306.361 70.1797 306.361 64.4507C306.361 58.7218 304.548 53.9954 300.923 50.2716C297.297 46.5478 292.788 44.6858 287.397 44.6858C282.005 44.6858 277.519 46.5478 273.94 50.2716C270.361 53.9954 268.571 58.7218 268.571 64.4507C268.571 70.1797 270.361 74.9061 273.94 78.6299Z" fill="#3BA4F3"/>
<path d="M352.099 48.9826C352.099 50.8922 353.331 52.4438 355.794 53.6373C358.258 54.8309 361.256 55.8812 364.788 56.7883C368.321 57.6954 371.853 58.8411 375.386 60.2256C378.919 61.6101 381.917 63.9256 384.38 67.172C386.844 70.4184 388.076 74.4764 388.076 79.346C388.076 86.6982 385.403 92.3555 380.057 96.318C374.712 100.281 368.042 102.262 360.047 102.262C345.731 102.262 335.97 96.5806 330.764 85.2182L346.381 76.1951C348.427 82.4015 352.982 85.5046 360.047 85.5046C366.462 85.5046 369.669 83.4518 369.669 79.346C369.669 77.4364 368.437 75.8848 365.974 74.6912C363.51 73.4977 360.512 72.4235 356.979 71.4687C353.447 70.5139 349.914 69.3204 346.381 67.8881C342.849 66.4559 339.851 64.1882 337.387 61.085C334.924 57.9818 333.692 54.0909 333.692 49.4122C333.692 42.3465 336.225 36.7847 341.292 32.7267C346.358 28.6687 352.657 26.6396 360.187 26.6396C365.857 26.6396 371.017 27.9525 375.665 30.5783C380.313 33.2041 383.985 36.9518 386.681 41.8214L371.342 50.4148C369.111 45.5452 365.393 43.1104 360.187 43.1104C357.862 43.1104 355.934 43.6355 354.4 44.6858C352.866 45.7362 352.099 47.1684 352.099 48.9826Z" fill="#1D242A"/>
<path d="M438.415 26.6396C446.038 26.6396 452.336 29.2654 457.31 34.5169C462.283 39.7685 464.77 47.0252 464.77 56.287V100.257H446.782V58.5785C446.782 53.8044 445.527 50.1522 443.017 47.6219C440.507 45.0916 437.16 43.8265 432.977 43.8265C428.329 43.8265 424.61 45.3065 421.821 48.2664C419.032 51.2264 417.638 55.6663 417.638 61.5862V100.257H399.649V0H417.638V36.6653C422.007 29.9815 428.933 26.6396 438.415 26.6396Z" fill="#1D242A"/>
<path d="M501.513 98.538C499.189 100.925 496.401 102.119 493.147 102.119C489.893 102.119 487.104 100.925 484.78 98.538C482.456 96.1509 481.294 93.2864 481.294 89.9445C481.294 86.6026 482.456 83.7382 484.78 81.3511C487.104 78.964 489.893 77.7705 493.147 77.7705C496.401 77.7705 499.189 78.964 501.513 81.3511C503.838 83.7382 505 86.6026 505 89.9445C505 93.2864 503.838 96.1509 501.513 98.538Z" fill="#1D242A"/>
</svg>
