<svg width="200" height="40" viewBox="0 0 200 40" fill="none" xmlns="http://www.w3.org/2000/svg">
<g clip-path="url(#clip0_107_101)">
<path d="M8.44954 19.1597C8.44954 19.9066 8.93737 20.5135 9.91302 20.9804C10.8887 21.4472 12.076 21.8581 13.4751 22.2129C14.8741 22.5677 16.2732 23.0159 17.6722 23.5574C19.0713 24.099 20.2586 25.0047 21.2343 26.2745C22.21 27.5443 22.6978 29.1317 22.6978 31.0364C22.6978 33.9122 21.6393 36.1251 19.5223 37.6751C17.4053 39.225 14.7637 40 11.5974 40C5.92756 40 2.06176 37.7778 0 33.3333L6.18528 29.8039C6.99526 32.2316 8.7993 33.4454 11.5974 33.4454C14.1378 33.4454 15.408 32.6424 15.408 31.0364C15.408 30.2894 14.9202 29.6825 13.9445 29.2157C12.9688 28.7488 11.7815 28.3287 10.3824 27.9552C8.98339 27.5817 7.58434 27.1148 6.18528 26.5546C4.78623 25.9944 3.59888 25.1074 2.62322 23.8936C1.64757 22.6797 1.15974 21.1578 1.15974 19.3277C1.15974 16.564 2.16301 14.3884 4.16954 12.8011C6.17608 11.2138 8.67044 10.4202 11.6526 10.4202C13.8985 10.4202 15.9418 10.9337 17.7827 11.9608C19.6235 12.9879 21.0778 14.4538 22.1455 16.3585L16.0707 19.7199C15.1871 17.8151 13.7144 16.8627 11.6526 16.8627C10.7322 16.8627 9.96825 17.0682 9.36076 17.479C8.75328 17.8898 8.44954 18.45 8.44954 19.1597Z" fill="#231F20"/>
<path d="M57.5452 11.2045H65.1111L56.3302 39.2157H49.5374L44.4567 22.2409L39.3759 39.2157H32.5831L23.8022 11.2045H31.3682L36.0624 28.4034L41.0879 11.2045H47.8254L52.851 28.4594L57.5452 11.2045Z" fill="#231F20"/>
<path d="M91.3986 35.7143C88.5636 38.5714 85.1028 40 81.0161 40C76.9294 40 73.4778 38.5714 70.6613 35.7143C67.8448 32.8571 66.4365 29.3557 66.4365 25.2101C66.4365 21.0644 67.8448 17.563 70.6613 14.7059C73.4778 11.8487 76.9294 10.4202 81.0161 10.4202C85.1028 10.4202 88.5636 11.8487 91.3986 14.7059C94.2335 17.563 95.6509 21.0644 95.6509 25.2101C95.6509 29.3557 94.2335 32.8571 91.3986 35.7143ZM75.6868 30.7563C77.1043 32.2129 78.8807 32.9412 81.0161 32.9412C83.1515 32.9412 84.9371 32.2129 86.373 30.7563C87.8089 29.2997 88.5268 27.451 88.5268 25.2101C88.5268 22.9692 87.8089 21.1204 86.373 19.6639C84.9371 18.2073 83.1515 17.479 81.0161 17.479C78.8807 17.479 77.1043 18.2073 75.6868 19.6639C74.2694 21.1204 73.5606 22.9692 73.5606 25.2101C73.5606 27.451 74.2694 29.2997 75.6868 30.7563Z" fill="#3BA4F3"/>
<path d="M124.203 35.7143C121.368 38.5714 117.907 40 113.82 40C109.734 40 106.282 38.5714 103.465 35.7143C100.649 32.8571 99.2407 29.3557 99.2407 25.2101C99.2407 21.0644 100.649 17.563 103.465 14.7059C106.282 11.8487 109.734 10.4202 113.82 10.4202C117.907 10.4202 121.368 11.8487 124.203 14.7059C127.038 17.563 128.455 21.0644 128.455 25.2101C128.455 29.3557 127.038 32.8571 124.203 35.7143ZM108.491 30.7563C109.908 32.2129 111.685 32.9412 113.82 32.9412C115.956 32.9412 117.741 32.2129 119.177 30.7563C120.613 29.2997 121.331 27.451 121.331 25.2101C121.331 22.9692 120.613 21.1204 119.177 19.6639C117.741 18.2073 115.956 17.479 113.82 17.479C111.685 17.479 109.908 18.2073 108.491 19.6639C107.074 21.1204 106.365 22.9692 106.365 25.2101C106.365 27.451 107.074 29.2997 108.491 30.7563Z" fill="#3BA4F3"/>
<path d="M139.445 19.1597C139.445 19.9066 139.933 20.5135 140.909 20.9804C141.884 21.4472 143.072 21.8581 144.471 22.2129C145.87 22.5677 147.269 23.0159 148.668 23.5574C150.067 24.099 151.254 25.0047 152.23 26.2745C153.206 27.5443 153.693 29.1317 153.693 31.0364C153.693 33.9122 152.635 36.1251 150.518 37.6751C148.401 39.225 145.759 40 142.593 40C136.923 40 133.057 37.7778 130.996 33.3333L137.181 29.8039C137.991 32.2316 139.795 33.4454 142.593 33.4454C145.133 33.4454 146.404 32.6424 146.404 31.0364C146.404 30.2894 145.916 29.6825 144.94 29.2157C143.964 28.7488 142.777 28.3287 141.378 27.9552C139.979 27.5817 138.58 27.1148 137.181 26.5546C135.782 25.9944 134.594 25.1074 133.619 23.8936C132.643 22.6797 132.155 21.1578 132.155 19.3277C132.155 16.564 133.159 14.3884 135.165 12.8011C137.172 11.2138 139.666 10.4202 142.648 10.4202C144.894 10.4202 146.937 10.9337 148.778 11.9608C150.619 12.9879 152.073 14.4538 153.141 16.3585L147.066 19.7199C146.183 17.8151 144.71 16.8627 142.648 16.8627C141.728 16.8627 140.964 17.0682 140.356 17.479C139.749 17.8898 139.445 18.45 139.445 19.1597Z" fill="#231F20"/>
<path d="M173.63 10.4202C176.649 10.4202 179.143 11.4472 181.113 13.5014C183.082 15.5556 184.067 18.394 184.067 22.0168V39.2157H176.943V22.9132C176.943 21.0458 176.446 19.6172 175.452 18.6275C174.458 17.6377 173.133 17.1429 171.476 17.1429C169.635 17.1429 168.162 17.7218 167.058 18.8796C165.953 20.0373 165.401 21.774 165.401 24.0896V39.2157H158.277V0H165.401V14.3417C167.131 11.7274 169.874 10.4202 173.63 10.4202Z" fill="#231F20"/>
<path d="M198.62 38.5434C197.699 39.4771 196.595 39.944 195.306 39.944C194.017 39.944 192.913 39.4771 191.992 38.5434C191.072 37.6097 190.612 36.4893 190.612 35.1821C190.612 33.8749 191.072 32.7544 191.992 31.8207C192.913 30.887 194.017 30.4202 195.306 30.4202C196.595 30.4202 197.699 30.887 198.62 31.8207C199.54 32.7544 200 33.8749 200 35.1821C200 36.4893 199.54 37.6097 198.62 38.5434Z" fill="#231F20"/>
</g>
<defs>
<clipPath id="clip0_107_101">
<rect width="200" height="40" fill="white"/>
</clipPath>
</defs>
</svg>
