<svg width="464" height="95" viewBox="0 0 464 95" fill="none" xmlns="http://www.w3.org/2000/svg">
<path d="M19.6029 45.4749C19.6029 47.2295 20.7347 48.6551 22.9982 49.7517C25.2617 50.8484 28.0164 51.8134 31.2622 52.6468C34.508 53.4803 37.7538 54.533 40.9996 55.8051C44.2454 57.0772 47 59.2047 49.2635 62.1875C51.5271 65.1703 52.6588 68.8989 52.6588 73.3731C52.6588 80.1284 50.2031 85.3264 45.2917 88.9672C40.3803 92.608 34.2517 94.4284 26.906 94.4284C13.7519 94.4284 4.78328 89.2085 0 78.7686L14.3498 70.478C16.229 76.1805 20.4144 79.0318 26.906 79.0318C32.7997 79.0318 35.7465 77.1456 35.7465 73.3731C35.7465 71.6185 34.6147 70.1929 32.3512 69.0963C30.0877 67.9997 27.333 67.0127 24.0872 66.1354C20.8414 65.2581 17.5956 64.1615 14.3498 62.8455C11.104 61.5295 8.34939 59.4459 6.08587 56.5947C3.82236 53.7435 2.6906 50.1685 2.6906 45.8697C2.6906 39.3776 5.01818 34.2673 9.67334 30.5388C14.3285 26.8102 20.1154 24.946 27.0341 24.946C32.2445 24.946 36.985 26.1522 41.2558 28.5648C45.5266 30.9774 48.9005 34.4208 51.3776 38.8951L37.284 46.7908C35.234 42.3166 31.8174 40.0794 27.0341 40.0794C24.8987 40.0794 23.1263 40.562 21.717 41.527C20.3076 42.492 19.6029 43.808 19.6029 45.4749Z" fill="white"/>
<path d="M133.505 26.7883H151.058L130.686 92.5861H114.927L103.139 52.7126L91.3521 92.5861H75.5929L55.2212 26.7883H72.7741L83.6646 67.1882L95.3239 26.7883H110.955L122.614 67.3198L133.505 26.7883Z" fill="white"/>
<path d="M212.045 84.3614C205.468 91.0728 197.439 94.4284 187.957 94.4284C178.476 94.4284 170.469 91.0728 163.934 84.3614C157.4 77.65 154.133 69.4253 154.133 59.6872C154.133 49.9491 157.4 41.7244 163.934 35.013C170.469 28.3016 178.476 24.946 187.957 24.946C197.439 24.946 205.468 28.3016 212.045 35.013C218.622 41.7244 221.91 49.9491 221.91 59.6872C221.91 69.4253 218.622 77.65 212.045 84.3614ZM175.594 72.7152C178.882 76.1367 183.003 77.8474 187.957 77.8474C192.912 77.8474 197.054 76.1367 200.385 72.7152C203.717 69.2937 205.382 64.951 205.382 59.6872C205.382 54.4234 203.717 50.0807 200.385 46.6592C197.054 43.2377 192.912 41.527 187.957 41.527C183.003 41.527 178.882 43.2377 175.594 46.6592C172.305 50.0807 170.661 54.4234 170.661 59.6872C170.661 64.951 172.305 69.2937 175.594 72.7152Z" fill="#3BA4F3"/>
<path d="M288.15 84.3614C281.573 91.0728 273.544 94.4284 264.063 94.4284C254.582 94.4284 246.574 91.0728 240.04 84.3614C233.505 77.65 230.238 69.4253 230.238 59.6872C230.238 49.9491 233.505 41.7244 240.04 35.013C246.574 28.3016 254.582 24.946 264.063 24.946C273.544 24.946 281.573 28.3016 288.15 35.013C294.727 41.7244 298.016 49.9491 298.016 59.6872C298.016 69.4253 294.727 77.65 288.15 84.3614ZM251.699 72.7152C254.988 76.1367 259.109 77.8474 264.063 77.8474C269.017 77.8474 273.16 76.1367 276.491 72.7152C279.822 69.2937 281.488 64.951 281.488 59.6872C281.488 54.4234 279.822 50.0807 276.491 46.6592C273.16 43.2377 269.017 41.527 264.063 41.527C259.109 41.527 254.988 43.2377 251.699 46.6592C248.41 50.0807 246.766 54.4234 246.766 59.6872C246.766 64.951 248.41 69.2937 251.699 72.7152Z" fill="#3BA4F3"/>
<path d="M323.512 45.4749C323.512 47.2295 324.644 48.6551 326.907 49.7517C329.171 50.8484 331.926 51.8134 335.171 52.6468C338.417 53.4803 341.663 54.533 344.909 55.8051C348.155 57.0772 350.909 59.2047 353.173 62.1875C355.436 65.1703 356.568 68.8989 356.568 73.3731C356.568 80.1284 354.112 85.3264 349.201 88.9672C344.289 92.608 338.161 94.4284 330.815 94.4284C317.661 94.4284 308.692 89.2085 303.909 78.7686L318.259 70.478C320.138 76.1805 324.324 79.0318 330.815 79.0318C336.709 79.0318 339.656 77.1456 339.656 73.3731C339.656 71.6185 338.524 70.1929 336.26 69.0963C333.997 67.9997 331.242 67.0127 327.996 66.1354C324.751 65.2581 321.505 64.1615 318.259 62.8455C315.013 61.5295 312.259 59.4459 309.995 56.5947C307.732 53.7435 306.6 50.1685 306.6 45.8697C306.6 39.3776 308.927 34.2673 313.583 30.5388C318.238 26.8102 324.025 24.946 330.943 24.946C336.154 24.946 340.894 26.1522 345.165 28.5648C349.436 30.9774 352.81 34.4208 355.287 38.8951L341.193 46.7908C339.143 42.3166 335.727 40.0794 330.943 40.0794C328.808 40.0794 327.035 40.562 325.626 41.527C324.217 42.492 323.512 43.808 323.512 45.4749Z" fill="white"/>
<path d="M402.821 24.946C409.825 24.946 415.612 27.3586 420.181 32.1837C424.751 37.0089 427.036 43.6764 427.036 52.1863V92.5861H410.508V54.2918C410.508 49.9053 409.355 46.5496 407.049 44.2247C404.742 41.8999 401.667 40.7374 397.824 40.7374C393.553 40.7374 390.136 42.0973 387.574 44.8169C385.011 47.5365 383.73 51.616 383.73 57.0553V92.5861H367.202V0.469177H383.73V34.1577C387.745 28.0165 394.108 24.946 402.821 24.946Z" fill="white"/>
<path d="M460.797 91.007C458.661 93.2002 456.099 94.2968 453.109 94.2968C450.12 94.2968 447.557 93.2002 445.422 91.007C443.286 88.8137 442.219 86.1818 442.219 83.1112C442.219 80.0407 443.286 77.4087 445.422 75.2155C447.557 73.0222 450.12 71.9256 453.109 71.9256C456.099 71.9256 458.661 73.0222 460.797 75.2155C462.932 77.4087 464 80.0407 464 83.1112C464 86.1818 462.932 88.8137 460.797 91.007Z" fill="white"/>
</svg>
