<svg width="56" height="16" viewBox="0 0 56 16" fill="none" xmlns="http://www.w3.org/2000/svg">
<path d="M1 7C0.447715 7 9.65645e-08 7.44772 0 8C-9.65645e-08 8.55228 0.447715 9 1 9L1 7ZM55.7071 8.70712C56.0976 8.31659 56.0976 7.68343 55.7071 7.2929L49.3432 0.928941C48.9526 0.538416 48.3195 0.538416 47.9289 0.92894C47.5384 1.31946 47.5384 1.95263 47.9289 2.34315L53.5858 8.00001L47.9289 13.6569C47.5384 14.0474 47.5384 14.6806 47.9289 15.0711C48.3195 15.4616 48.9526 15.4616 49.3431 15.0711L55.7071 8.70712ZM1 9L55 9.00001L55 7.00001L1 7L1 9Z" fill="black"/>
</svg>
