<svg width="26" height="21" viewBox="0 0 26 21" fill="none" xmlns="http://www.w3.org/2000/svg">
<g clip-path="url(#clip0_111_119)">
<path d="M25.7452 2.27173C25.7452 2.27173 25.6782 2.36617 25.638 2.42014L16.7612 12.5528C15.8092 13.6457 14.4415 14.2663 12.9933 14.2663C11.5585 14.2663 10.1774 13.6457 9.22537 12.5528L0.241362 2.28522C0.0804539 2.663 0 3.06777 0 3.49952V15.1163C0 18.1116 2.41362 20.5537 5.40382 20.5537H20.6096C23.5864 20.5537 26.0134 18.1251 26.0134 15.1163V3.49952C26.0134 3.06777 25.9195 2.64951 25.7586 2.27173H25.7452Z" fill="#1D242A"/>
<path d="M11.2499 10.745C11.6924 11.2577 12.3092 11.541 12.9931 11.541C13.6769 11.541 14.2937 11.2577 14.7362 10.745L23.613 0.612295C23.613 0.612295 23.68 0.544834 23.7202 0.51785C23.4655 0.450389 23.1973 0.409912 22.9291 0.409912H3.05702C2.78884 0.409912 2.53407 0.450389 2.2793 0.51785L11.2499 10.7584V10.745Z" fill="#1D242A"/>
</g>
<defs>
<clipPath id="clip0_111_119">
<rect width="26" height="20.1439" fill="white" transform="translate(0 0.409912)"/>
</clipPath>
</defs>
</svg>
