<svg width="31" height="26" viewBox="0 0 31 26" fill="none" xmlns="http://www.w3.org/2000/svg">
<path d="M1.84416 11.304C1.84416 11.304 15.1342 5.80468 19.7442 3.87087C21.5142 3.09533 27.5042 0.617628 27.5042 0.617628C27.5042 0.617628 30.2642 -0.470141 30.0342 2.16871C29.9542 3.25648 29.3442 7.04353 28.7242 11.1428C27.8042 16.9442 26.8042 23.2896 26.8042 23.2896C26.8042 23.2896 26.6542 25.0723 25.3442 25.3745C24.0342 25.6867 21.8842 24.2968 21.5042 23.9845C21.1942 23.7529 15.7442 20.268 13.7442 18.5658C13.2042 18.1025 12.5942 17.1759 13.8242 16.0881C16.5842 13.5399 19.8942 10.3673 21.8842 8.35288C22.8042 7.42626 23.7242 5.26079 19.8842 7.88957C14.4342 11.6766 9.05416 15.2421 9.05416 15.2421C9.05416 15.2421 7.82416 16.0176 5.52416 15.3227C3.22416 14.6277 0.534161 13.7011 0.534161 13.7011C0.534161 13.7011 -1.30584 12.5428 1.84416 11.304Z" fill="#1D242A"/>
</svg>
